<?xml version="1.0" encoding="utf-8"?>
<!-- Generator: Adobe Illustrator 21.1.0, SVG Export Plug-In . SVG Version: 6.00 Build 0)  -->
<svg version="1.1" id="Layer_1" xmlns="http://www.w3.org/2000/svg" xmlns:xlink="http://www.w3.org/1999/xlink" x="0px" y="0px"
	 viewBox="0 0 285.8 56" style="enable-background:new 0 0 285.8 56;" xml:space="preserve">
<style type="text/css">
	.st0{fill:#FFFFFF;}
</style>
<g>
	<g>
		<path class="st0" d="M267.6,46.4h6.3v1.2h-2.4v7.8H270v-7.8h-2.4V46.4z"/>
		<path class="st0" d="M275.4,46.4h1.6l3.2,7.1l3.2-7.1h1.6v9h-1.5v-6.2l-2.8,6.2h-1l-2.8-6.2v6.2h-1.5V46.4z"/>
	</g>
	<g>
		<path class="st0" d="M251.9,28c3.9-4.4,5.4-9.6,3.8-15.3c-1.8-6.5-6.2-10.4-12.8-11.8c-0.5-0.1-1-0.3-1.5-0.4c-12,0-23.9,0-35.9,0
			c-3.8,0-7.6,0-11.4,0c0,18.3,0,36.6,0,54.9c3.8,0,7.6,0,11.4,0c11.8,0,23.7,0,35.5,0c1-0.2,1.9-0.4,2.9-0.6
			c11.3-2.7,16.1-16,9.2-25.4C252.7,28.9,252.3,28.5,251.9,28z M238,45.4c-10.3,0-20.5,0-30.8,0c-0.5,0-0.9-0.1-1.6-0.1
			c0-11.6,0-23.1,0-34.7c1.2,0,2.3,0,3.3,0c9.7,0,19.5,0,29.2,0c4.5,0,7.5,3.7,6.4,7.8c-0.8,2.8-3.1,4.6-6.3,4.6
			c-8.1,0-16.3,0-24.4,0c-2.9,0-3.1,0.2-3.1,3.1c0,1.3,0,2.7,0,4c0,2.6,0.3,2.9,2.9,2.9c8.1,0,16.1,0,24.2,0c4.1,0,6.9,2.5,7,6.1
			C244.9,42.7,242,45.4,238,45.4z"/>
		<path class="st0" d="M119.1,33.2c1.7-0.2,3.2-0.3,4.6-0.5c7.8-1.4,13.3-8.1,13.2-16c-0.1-7.9-5.7-14.6-13.5-15.8
			c-0.4-0.1-0.9-0.2-1.4-0.3c-12,0-23.9,0-35.9,0c-3.8,0-7.6,0-11.4,0h-0.1v54.9h0.1c3.7,0,7.5,0,11.2,0h0.2V10.7
			c0.6-0.1,1-0.1,1.4-0.1c10.4,0,20.8,0,31.2,0c2.7,0,4.8,1.1,6,3.6c1,2.2,0.8,4.4-0.7,6.4c-1.3,1.7-3.1,2.4-5.2,2.4
			c-8.2,0-16.4,0-24.6,0c-2.5,0-2.8,0.3-2.8,2.7c0,1.7,0,3.5,0,5.2c0,1.4,0.7,2,2.1,2c2.9,0,5.7,0,8.6,0c1.7,0,3,0.6,4.2,1.9
			c1.3,1.5,2.6,3.1,3.9,4.6l0,0l0.1,0.1c2.7,3.3,5.5,6.5,8.3,9.8l5.1,6.1h1.5c4.1,0,8.3,0,12.4,0c-5-6-10.1-12.1-15.1-18.1
			C121.4,36,120.3,34.7,119.1,33.2z"/>
		<path class="st0" d="M6.1,0.6c-0.9,0-1.9,0-2.8,0c-1.6,0-2.4,0.6-2.3,2.2c0,0.4,0,0.9,0,1.3c0,0.4,0,0.9,0,1.3c0,0.1,0,0.1,0,0.2
			c0,0.1,0,0.1,0,0.2c0,0.4,0,0.9,0,1.3c0,0.4,0,0.9,0,1.3c0,1.6,0.7,2.2,2.3,2.2c0.3,0,0.7,0,1,0c0,0,0,0,0,0h16.9v0v-10v0L6.1,0.6
			C6.1,0.6,6.1,0.6,6.1,0.6z"/>
		<path class="st0" d="M148.3,0.6v54.9h0.1c3.7,0,7.5,0,11.2,0c0-18.3,0-36.6,0-54.9c-3.7,0-7.5,0-11.2,0H148.3z"/>
		<path class="st0" d="M26.3,0.6c0,18.3,0,36.6,0,54.9c3.7,0,7.5,0,11.2,0H38V10.5c8.5,0,16.8,0,25.2,0c0-3.5,0-6.7,0-10
			c-8.4,0-16.8,0-25.2,0C34.1,0.6,30.2,0.6,26.3,0.6z"/>
		<path class="st0" d="M171.2,0.6v54.9h0.1c3.7,0,7.5,0,11.2,0c0-18.3,0-36.6,0-54.9c-3.7,0-7.5,0-11.2,0H171.2z"/>
	</g>
</g>
</svg>
